<svg width="156" height="297" viewBox="0 0 156 297" fill="none" xmlns="http://www.w3.org/2000/svg">
<path d="M126.451 295.443C127.8 296.827 130.016 296.856 131.401 295.506L153.956 273.518C155.34 272.168 155.369 269.953 154.019 268.568C152.67 267.184 150.454 267.156 149.07 268.505L129.02 288.051L109.475 268.001C108.126 266.617 105.91 266.589 104.526 267.938C103.142 269.288 103.113 271.503 104.463 272.888L126.451 295.443ZM8.87268 12.226C10.4835 13.2946 12.6555 12.855 13.7241 11.2442C14.7926 9.63341 14.353 7.46137 12.7422 6.39282L8.87268 12.226ZM29.4135 19.143C27.9507 17.8794 25.7405 18.041 24.4769 19.5039C23.2134 20.9667 23.375 23.1769 24.8378 24.4404L29.4135 19.143ZM39.4878 38.4286C40.8221 39.8272 43.0375 39.8795 44.4362 38.5453C45.8349 37.2111 45.8872 34.9956 44.5529 33.5969L39.4878 38.4286ZM58.3219 49.3095C57.1081 47.8051 54.9045 47.5697 53.4002 48.7836C51.8959 49.9974 51.6604 52.201 52.8743 53.7053L58.3219 49.3095ZM65.0283 69.9971C66.1261 71.588 68.3058 71.9878 69.8968 70.89C71.4878 69.7922 71.8876 67.6125 70.7898 66.0215L65.0283 69.9971ZM82.0044 83.5635C81.0199 81.9 78.8733 81.3495 77.2098 82.334C75.5463 83.3185 74.9958 85.4651 75.9803 87.1286L82.0044 83.5635ZM85.7634 104.983C86.6366 106.708 88.7425 107.398 90.467 106.525C92.1915 105.651 92.8816 103.545 92.0084 101.821L85.7634 104.983ZM100.825 120.679C100.061 118.903 98.0017 118.083 96.2262 118.847C94.4507 119.612 93.6308 121.67 94.395 123.446L100.825 120.679ZM101.897 142.419C102.555 144.237 104.561 145.177 106.379 144.519C108.197 143.862 109.137 141.855 108.48 140.037L101.897 142.419ZM114.983 159.744C114.429 157.892 112.478 156.841 110.627 157.395C108.775 157.949 107.723 159.9 108.277 161.751L114.983 159.744ZM113.597 181.451C114.051 183.33 115.942 184.485 117.821 184.031C119.7 183.577 120.855 181.686 120.401 179.807L113.597 181.451ZM124.761 200.122C124.403 198.222 122.573 196.972 120.674 197.33C118.774 197.688 117.524 199.518 117.882 201.417L124.761 200.122ZM121.167 221.559C121.432 223.473 123.199 224.81 125.114 224.545C127.029 224.28 128.366 222.513 128.1 220.598L121.167 221.559ZM130.471 241.212C130.294 239.287 128.59 237.87 126.665 238.047C124.74 238.224 123.323 239.928 123.5 241.853L130.471 241.212ZM124.927 262.274C125.02 264.205 126.661 265.695 128.592 265.602C130.522 265.509 132.012 263.868 131.919 261.937L124.927 262.274ZM132.487 282.622C132.473 280.689 130.895 279.133 128.962 279.147C127.029 279.16 125.473 280.739 125.487 282.672L132.487 282.622ZM0.340678 7.08166C3.0097 8.5188 5.86516 10.2309 8.87268 12.226L12.7422 6.39282C9.57333 4.29066 6.53418 2.4663 3.65932 0.918336L0.340678 7.08166ZM24.8378 24.4404C29.5827 28.5388 34.4974 33.197 39.4878 38.4286L44.5529 33.5969C39.4112 28.2067 34.3335 23.3927 29.4135 19.143L24.8378 24.4404ZM52.8743 53.7053C56.9482 58.754 61.0159 64.1823 65.0283 69.9971L70.7898 66.0215C66.678 60.0627 62.5056 54.4942 58.3219 49.3095L52.8743 53.7053ZM75.9803 87.1286C79.3276 92.7846 82.5993 98.7346 85.7634 104.983L92.0084 101.821C88.7748 95.4351 85.4294 89.3508 82.0044 83.5635L75.9803 87.1286ZM94.395 123.446C97.0128 129.528 99.5211 135.851 101.897 142.419L108.48 140.037C106.056 133.339 103.497 126.887 100.825 120.679L94.395 123.446ZM108.277 161.751C110.182 168.115 111.961 174.68 113.597 181.451L120.401 179.807C118.735 172.914 116.924 166.227 114.983 159.744L108.277 161.751ZM117.882 201.417C119.113 207.957 120.212 214.671 121.167 221.559L128.1 220.598C127.131 213.599 126.013 206.774 124.761 200.122L117.882 201.417ZM123.5 241.853C124.113 248.51 124.592 255.316 124.927 262.274L131.919 261.937C131.579 254.879 131.093 247.971 130.471 241.212L123.5 241.853ZM125.487 282.672C125.511 286.066 125.502 289.494 125.458 292.955L132.457 293.045C132.502 289.537 132.511 286.063 132.487 282.622L125.487 282.672Z" fill="url(#paint0_linear_760_1768)"/>
<defs>
<linearGradient id="paint0_linear_760_1768" x1="65.5" y1="4" x2="65.5" y2="293" gradientUnits="userSpaceOnUse">
<stop stop-color="#482CE5"/>
<stop offset="1" stop-color="#C315D0"/>
</linearGradient>
</defs>
</svg>
