<svg width="156" height="297" viewBox="0 0 156 297" fill="none" xmlns="http://www.w3.org/2000/svg">
<path d="M29.5488 295.443C28.1995 296.827 25.9836 296.856 24.5995 295.506L2.04384 273.518C0.659711 272.168 0.631496 269.953 1.98082 268.568C3.33014 267.184 5.54604 267.156 6.93016 268.505L26.9796 288.051L46.5249 268.001C47.8743 266.617 50.0902 266.589 51.4743 267.938C52.8584 269.288 52.8866 271.503 51.5373 272.888L29.5488 295.443ZM147.127 12.226C145.517 13.2946 143.344 12.855 142.276 11.2442C141.207 9.63341 141.647 7.46137 143.258 6.39282L147.127 12.226ZM126.586 19.143C128.049 17.8794 130.26 18.041 131.523 19.5039C132.787 20.9667 132.625 23.1769 131.162 24.4404L126.586 19.143ZM116.512 38.4286C115.178 39.8272 112.962 39.8795 111.564 38.5453C110.165 37.2111 110.113 34.9956 111.447 33.5969L116.512 38.4286ZM97.6781 49.3095C98.8919 47.8051 101.095 47.5697 102.6 48.7836C104.104 49.9974 104.34 52.201 103.126 53.7053L97.6781 49.3095ZM90.9717 69.9971C89.8739 71.588 87.6942 71.9878 86.1032 70.89C84.5122 69.7922 84.1124 67.6125 85.2102 66.0215L90.9717 69.9971ZM73.9956 83.5635C74.9801 81.9 77.1267 81.3495 78.7902 82.334C80.4537 83.3185 81.0042 85.4651 80.0197 87.1286L73.9956 83.5635ZM70.2366 104.983C69.3634 106.708 67.2575 107.398 65.533 106.525C63.8085 105.651 63.1184 103.545 63.9916 101.821L70.2366 104.983ZM55.1752 120.679C55.9394 118.903 57.9983 118.083 59.7738 118.847C61.5493 119.612 62.3692 121.67 61.605 123.446L55.1752 120.679ZM54.1028 142.419C53.4452 144.237 51.4385 145.177 49.6208 144.519C47.8031 143.862 46.8627 141.855 47.5203 140.037L54.1028 142.419ZM41.0168 159.744C41.5711 157.892 43.5217 156.841 45.3735 157.395C47.2253 157.949 48.2772 159.9 47.7229 161.751L41.0168 159.744ZM42.4029 181.451C41.9488 183.33 40.0576 184.485 38.1787 184.031C36.2998 183.577 35.1447 181.686 35.5989 179.807L42.4029 181.451ZM31.2391 200.122C31.5967 198.222 33.4266 196.972 35.3262 197.33C37.2258 197.688 38.4758 199.518 38.1182 201.417L31.2391 200.122ZM34.8334 221.559C34.5681 223.473 32.8009 224.81 30.8862 224.545C28.9715 224.28 27.6344 222.513 27.8996 220.598L34.8334 221.559ZM25.529 241.212C25.7061 239.287 27.41 237.87 29.3349 238.047C31.2598 238.224 32.6766 239.928 32.4996 241.853L25.529 241.212ZM31.0729 262.274C30.9798 264.205 29.3391 265.695 27.4084 265.602C25.4776 265.509 23.9879 263.868 24.081 261.937L31.0729 262.274ZM23.5131 282.622C23.5268 280.689 25.1049 279.133 27.0379 279.147C28.9708 279.16 30.5267 280.739 30.5129 282.672L23.5131 282.622ZM155.659 7.08166C152.99 8.5188 150.135 10.2309 147.127 12.226L143.258 6.39282C146.427 4.29066 149.466 2.4663 152.341 0.918336L155.659 7.08166ZM131.162 24.4404C126.417 28.5388 121.503 33.197 116.512 38.4286L111.447 33.5969C116.589 28.2067 121.666 23.3927 126.586 19.143L131.162 24.4404ZM103.126 53.7053C99.0518 58.754 94.9841 64.1823 90.9717 69.9971L85.2102 66.0215C89.322 60.0627 93.4944 54.4942 97.6781 49.3095L103.126 53.7053ZM80.0197 87.1286C76.6724 92.7846 73.4007 98.7346 70.2366 104.983L63.9916 101.821C67.2252 95.4351 70.5706 89.3508 73.9956 83.5635L80.0197 87.1286ZM61.605 123.446C58.9872 129.528 56.4789 135.851 54.1028 142.419L47.5203 140.037C49.9436 133.339 52.5029 126.887 55.1752 120.679L61.605 123.446ZM47.7229 161.751C45.8183 168.115 44.0394 174.68 42.4029 181.451L35.5989 179.807C37.2647 172.914 39.0763 166.227 41.0168 159.744L47.7229 161.751ZM38.1182 201.417C36.8869 207.957 35.7877 214.671 34.8334 221.559L27.8996 220.598C28.8694 213.599 29.9868 206.774 31.2391 200.122L38.1182 201.417ZM32.4996 241.853C31.8872 248.51 31.4083 255.316 31.0729 262.274L24.081 261.937C24.4212 254.879 24.9072 247.971 25.529 241.212L32.4996 241.853ZM30.5129 282.672C30.4888 286.066 30.4983 289.494 30.5424 292.955L23.5429 293.045C23.4983 289.537 23.4887 286.063 23.5131 282.622L30.5129 282.672Z" fill="url(#paint0_linear_760_1769)"/>
<defs>
<linearGradient id="paint0_linear_760_1769" x1="90.5" y1="4" x2="90.5" y2="293" gradientUnits="userSpaceOnUse">
<stop stop-color="#482CE5"/>
<stop offset="1" stop-color="#C315D0"/>
</linearGradient>
</defs>
</svg>
