<svg width="393" height="2203" fill="none" xmlns="http://www.w3.org/2000/svg"><path fill="#0C0815" d="M0 0H394V2203H0z"/><path stroke="url(#a)" stroke-width="2" d="M294 212L294 414"/><path stroke="url(#b)" stroke-width="2" d="M96 212L295 212"/><path stroke="url(#c)" stroke-width="2" d="M97 414L97 616"/><path stroke="url(#d)" stroke-width="2" d="M294 617L294 819"/><path stroke="url(#e)" stroke-width="2" d="M96 617L295 617"/><path stroke="url(#f)" stroke-width="2" d="M293 415L96 415"/><path stroke="url(#g)" stroke-width="2" d="M99 819L99 1021"/><path stroke="url(#h)" stroke-width="2" d="M296 1021L296 1223"/><path stroke="url(#i)" stroke-width="2" d="M98 1020L297 1020"/><path stroke="url(#j)" stroke-width="2" d="M295 820L98 820"/><path stroke="url(#k)" stroke-width="2" d="M101 1223L101 1425"/><path stroke="url(#l)" stroke-width="2" d="M298 1426L298 1628"/><path stroke="url(#m)" stroke-width="2" d="M100 1426L299 1426"/><path stroke="url(#n)" stroke-width="2" d="M297 1224L100 1224"/><path stroke="url(#o)" stroke-width="2" d="M103 1628L103 1830"/><path stroke="url(#p)" stroke-width="2" d="M102 1829L394 1829"/><path stroke="url(#q)" stroke-width="2" d="M299 1629L102 1629"/><defs><linearGradient id="a" x1="292.5" y1="212" x2="292.5" y2="414" gradientUnits="userSpaceOnUse"><stop stop-color="#482CE5"/><stop offset="1" stop-color="#C315D0"/></linearGradient><linearGradient id="b" x1="96" y1="213.5" x2="295" y2="213.5" gradientUnits="userSpaceOnUse"><stop stop-color="#C315D0"/><stop offset="1" stop-color="#482CE5"/></linearGradient><linearGradient id="c" x1="95.5" y1="414" x2="95.5" y2="616" gradientUnits="userSpaceOnUse"><stop stop-color="#482CE5"/><stop offset="1" stop-color="#C315D0"/></linearGradient><linearGradient id="d" x1="292.5" y1="617" x2="292.5" y2="819" gradientUnits="userSpaceOnUse"><stop stop-color="#482CE5"/><stop offset="1" stop-color="#C315D0"/></linearGradient><linearGradient id="e" x1="96" y1="618.5" x2="295" y2="618.5" gradientUnits="userSpaceOnUse"><stop stop-color="#C315D0"/><stop offset="1" stop-color="#482CE5"/></linearGradient><linearGradient id="f" x1="96" y1="413.5" x2="293" y2="413.5" gradientUnits="userSpaceOnUse"><stop stop-color="#482CE5"/><stop offset="1" stop-color="#C315D0"/></linearGradient><linearGradient id="g" x1="97.5" y1="819" x2="97.5" y2="1021" gradientUnits="userSpaceOnUse"><stop stop-color="#482CE5"/><stop offset="1" stop-color="#C315D0"/></linearGradient><linearGradient id="h" x1="294.5" y1="1021" x2="294.5" y2="1223" gradientUnits="userSpaceOnUse"><stop stop-color="#482CE5"/><stop offset="1" stop-color="#C315D0"/></linearGradient><linearGradient id="i" x1="98" y1="1021.5" x2="297" y2="1021.5" gradientUnits="userSpaceOnUse"><stop stop-color="#C315D0"/><stop offset="1" stop-color="#482CE5"/></linearGradient><linearGradient id="j" x1="98" y1="818.5" x2="295" y2="818.5" gradientUnits="userSpaceOnUse"><stop stop-color="#482CE5"/><stop offset="1" stop-color="#C315D0"/></linearGradient><linearGradient id="k" x1="99.5" y1="1223" x2="99.5" y2="1425" gradientUnits="userSpaceOnUse"><stop stop-color="#482CE5"/><stop offset="1" stop-color="#C315D0"/></linearGradient><linearGradient id="l" x1="296.5" y1="1426" x2="296.5" y2="1628" gradientUnits="userSpaceOnUse"><stop stop-color="#482CE5"/><stop offset="1" stop-color="#C315D0"/></linearGradient><linearGradient id="m" x1="100" y1="1427.5" x2="299" y2="1427.5" gradientUnits="userSpaceOnUse"><stop stop-color="#C315D0"/><stop offset="1" stop-color="#482CE5"/></linearGradient><linearGradient id="n" x1="100" y1="1222.5" x2="297" y2="1222.5" gradientUnits="userSpaceOnUse"><stop stop-color="#482CE5"/><stop offset="1" stop-color="#C315D0"/></linearGradient><linearGradient id="o" x1="101.5" y1="1628" x2="101.5" y2="1830" gradientUnits="userSpaceOnUse"><stop stop-color="#482CE5"/><stop offset="1" stop-color="#C315D0"/></linearGradient><linearGradient id="p" x1="102" y1="1830.5" x2="394" y2="1830.5" gradientUnits="userSpaceOnUse"><stop stop-color="#C315D0"/><stop offset="1" stop-color="#482CE5"/></linearGradient><linearGradient id="q" x1="102" y1="1627.5" x2="299" y2="1627.5" gradientUnits="userSpaceOnUse"><stop stop-color="#482CE5"/><stop offset="1" stop-color="#C315D0"/></linearGradient></defs></svg>