<svg width="57" height="69" fill="none" xmlns="http://www.w3.org/2000/svg"><path d="M4.818 66.055c-1.452 0-2.563-.334-3.333-1.001C.715 64.379.33 63.382.33 62.062c0-1.313.385-2.306 1.155-2.981.77-.675 1.881-1.008 3.333-1.001l3.96.022v1.408H4.939c-.953 0-1.661.202-2.123.605-.462.403-.693 1.052-.693 1.947s.231 1.547.693 1.958c.462.403 1.17.605 2.123.605h3.949v1.43h-4.07zM9.987 66v-7.865h1.76v6.435H17.5V66H9.987zm7.955 0l3.542-7.865h2.717L27.743 66h-1.914l-.748-1.661h-4.477L19.856 66h-1.914zm3.3-3.091h3.201l-1.529-3.399h-.143l-1.529 3.399zM30.301 66l-3.542-7.865h1.914l2.915 6.49h.143l2.915-6.49h1.914L33.018 66H30.3zm7.025 0v-7.865h8.624v1.43h-6.864v1.738h6.226v1.43h-6.226v1.837h6.864V66h-8.624zm9.169 0l2.948-3.927-2.948-3.938h2.145l2.365 3.223h1.012l2.365-3.223h2.145l-2.948 3.938L56.527 66H54.37l-2.354-3.212h-1.012L48.65 66h-2.156zM6.398 30.883l1.397-1.133V13.987L5 15.867v29.75l.559.85h6.988L23.167 51H28.2l.28-.567v-.566l-.56-.567h-1.677l-.28-.283v-.567l.28-.567.28-.283h9.223l.28-.283v-.567l-.28-.567h-1.677l-.28-.283v-.567l.28-.566h8.944l.28-.284.28-.566-.28-.567-.28-.283h-1.397l-.28-.284v-.566l.28-.567h7.826l.559-.567V7.65l-2.795-1.133v22.666l1.677.85v9.35L44.41 37.4v-9.633l.28.283 1.397-.85V4.533l-3.354-1.7v24.084l.28.283v9.633L38.54 34.85v-9.917l1.398.567h.28V1.7L36.862 0v23.8l.56.567v12.75l7.266 3.116v.284h-6.987L32.95 38.25V26.633l1.118-.85V3.117l-2.515 1.7v35.577l6.428 2.956h-7.826l-1.677-.567v-9.35l.839.284V3.56l-3.075 2.106V32.3l1.118.567V42.5l-4.472-1.983v-9.634l.839.284v-23.8L20.652 5.95v23.8l.839.567v9.633l-4.193-1.983v-9.634l.56.284V5.95L14.502 8.5v18.417l1.398.85v12.525l13.975 6.175-10.9.283-.28-.567.28-.85h1.117l.28-.283.28-.85-.28-.567h-6.708l-.56-.283-.558-.283-.56-.567-.279-.283v-32.3L8.913 11.9v15.383l1.398.767v15.499l-4.193.084v-12.75h.28z" fill="#fff"/></svg>