<svg width="46" height="54" fill="none" xmlns="http://www.w3.org/2000/svg"><path d="M1.567 32.916l1.405-1.18V15.335l-2.81 1.956v30.955l.562.884h7.023l10.675 4.717H23.48l.281-.59v-.59l-.562-.589h-1.685l-.281-.295v-.59l.28-.589.282-.295h9.27l.28-.294v-.59l-.28-.59h-1.685l-.281-.294v-.59l.28-.59h8.99l.28-.294.282-.59-.281-.59-.281-.295h-1.405l-.28-.294v-.59l.28-.59h7.866l.562-.59V8.743l-2.81-1.18v23.585l1.686.884v9.729l-4.494-2.064V29.673l.28.295 1.405-.885V5.5l-3.37-1.77v25.06l.28.294v10.024l-4.495-2.064V26.725l1.405.59h.28V2.55L32.189.78v24.765l.561.59V39.4l7.304 3.243v.295h-7.022l-4.776-2.358V28.494l1.123-.885V4.025L26.85 5.794v37.018l6.461 3.075h-7.865l-1.686-.59V35.57l.843.295V4.487l-3.09 2.19V34.39l1.123.59v10.023l-4.494-2.064V32.916l.842.295V8.447l-3.09-1.474v24.763l.843.59V42.35l-4.214-2.064V30.262l.562.295V6.973L9.714 9.626v19.162l1.405.885v13.032l14.046 6.425-10.956.295-.281-.59.28-.884h1.124l.281-.295.281-.884-.28-.59H8.87l-.562-.295-.562-.295-.561-.59-.281-.294V11.1l-2.81 2.064V29.17l1.405.798v16.126l-4.214.088V32.916h.281z" fill="#fff"/></svg>