<svg width="25" height="25" fill="none" xmlns="http://www.w3.org/2000/svg"><path d="M20.15 7.987c.011.175.011.35.011.525C20.161 13.85 16.45 20 9.665 20A9.783 9.783 0 014 18.187c.297.038.582.05.89.05 1.725 0 3.313-.637 4.58-1.724-1.621-.038-2.98-1.2-3.448-2.8.228.037.456.062.696.062.332 0 .663-.05.971-.138-1.69-.375-2.958-2-2.958-3.962v-.05c.491.3 1.062.488 1.667.512-.993-.725-1.644-1.962-1.644-3.362a4.3 4.3 0 01.502-2.038c1.816 2.45 4.546 4.05 7.607 4.225a4.971 4.971 0 01-.091-.924C12.772 5.812 14.416 4 16.46 4c1.062 0 2.021.487 2.695 1.275a6.894 6.894 0 002.341-.975 3.982 3.982 0 01-1.621 2.225A6.899 6.899 0 0022 5.9a8.382 8.382 0 01-1.85 2.087z" fill="#fff"/></svg>