<svg width="25" height="25" fill="none" xmlns="http://www.w3.org/2000/svg"><path d="M12.502 8.141A4.351 4.351 0 008.144 12.5a4.351 4.351 0 004.358 4.359 4.351 4.351 0 004.357-4.359 4.351 4.351 0 00-4.357-4.359zm0 7.193A2.839 2.839 0 019.669 12.5a2.836 2.836 0 012.833-2.834 2.836 2.836 0 012.833 2.834 2.839 2.839 0 01-2.833 2.834zm5.552-7.37c0 .564-.455 1.016-1.016 1.016a1.017 1.017 0 111.017-1.017zm2.886 1.03c-.064-1.36-.375-2.567-1.373-3.561-.993-.994-2.2-1.305-3.56-1.373-1.404-.08-5.61-.08-7.013 0-1.358.064-2.564.375-3.561 1.37-.998.993-1.305 2.2-1.373 3.561-.08 1.404-.08 5.61 0 7.014.064 1.362.375 2.568 1.373 3.562.997.994 2.2 1.305 3.56 1.373 1.404.08 5.61.08 7.013 0 1.362-.064 2.568-.375 3.561-1.373.994-.994 1.305-2.2 1.373-3.562.08-1.403.08-5.606 0-7.01zm-1.813 8.517a2.869 2.869 0 01-1.615 1.616c-1.119.444-3.774.341-5.01.341-1.237 0-3.895.1-5.01-.341a2.868 2.868 0 01-1.616-1.616c-.443-1.119-.341-3.774-.341-5.011s-.099-3.896.341-5.011a2.869 2.869 0 011.616-1.616c1.119-.444 3.773-.341 5.01-.341 1.236 0 3.895-.1 5.01.341a2.869 2.869 0 011.616 1.616c.443 1.119.34 3.774.34 5.011s.103 3.896-.34 5.011z" fill="#fff"/></svg>